<mxfile host="app.diagrams.net" agent="Mozilla/5.0 (Macintosh; Intel Mac OS X 10_15_7) AppleWebKit/537.36 (KHTML, like Gecko) Chrome/128.0.0.0 Safari/537.36" version="24.7.8">
  <diagram name="Page-1" id="LKpJMUkqRbipSFp4o-rf">
    <mxGraphModel dx="1306" dy="835" grid="1" gridSize="10" guides="1" tooltips="1" connect="1" arrows="1" fold="1" page="1" pageScale="1" pageWidth="827" pageHeight="1169" math="0" shadow="0">
      <root>
        <mxCell id="0" />
        <mxCell id="1" parent="0" />
        <mxCell id="9fF-mX0wHtHAVdHUmGia-3" value="" style="edgeStyle=orthogonalEdgeStyle;rounded=0;orthogonalLoop=1;jettySize=auto;html=1;endArrow=none;endFill=0;" parent="1" source="9fF-mX0wHtHAVdHUmGia-1" target="9fF-mX0wHtHAVdHUmGia-2" edge="1">
          <mxGeometry relative="1" as="geometry" />
        </mxCell>
        <mxCell id="9fF-mX0wHtHAVdHUmGia-1" value="用户" style="rounded=1;whiteSpace=wrap;html=1;" parent="1" vertex="1">
          <mxGeometry x="80" y="80" width="80" height="40" as="geometry" />
        </mxCell>
        <mxCell id="9fF-mX0wHtHAVdHUmGia-5" value="" style="edgeStyle=orthogonalEdgeStyle;rounded=0;orthogonalLoop=1;jettySize=auto;html=1;endArrow=none;endFill=0;" parent="1" source="9fF-mX0wHtHAVdHUmGia-2" target="9fF-mX0wHtHAVdHUmGia-4" edge="1">
          <mxGeometry relative="1" as="geometry" />
        </mxCell>
        <mxCell id="9fF-mX0wHtHAVdHUmGia-2" value="用户角色&lt;br&gt;关联表" style="rounded=1;whiteSpace=wrap;html=1;" parent="1" vertex="1">
          <mxGeometry x="80" y="160" width="80" height="40" as="geometry" />
        </mxCell>
        <mxCell id="9fF-mX0wHtHAVdHUmGia-7" value="" style="edgeStyle=orthogonalEdgeStyle;shape=connector;rounded=0;orthogonalLoop=1;jettySize=auto;html=1;strokeColor=default;align=center;verticalAlign=middle;fontFamily=Helvetica;fontSize=11;fontColor=default;labelBackgroundColor=default;endArrow=none;endFill=0;" parent="1" source="9fF-mX0wHtHAVdHUmGia-4" target="9fF-mX0wHtHAVdHUmGia-6" edge="1">
          <mxGeometry relative="1" as="geometry" />
        </mxCell>
        <mxCell id="9fF-mX0wHtHAVdHUmGia-10" value="" style="edgeStyle=orthogonalEdgeStyle;shape=connector;rounded=0;orthogonalLoop=1;jettySize=auto;html=1;strokeColor=default;align=center;verticalAlign=middle;fontFamily=Helvetica;fontSize=11;fontColor=default;labelBackgroundColor=default;endArrow=none;endFill=0;" parent="1" source="9fF-mX0wHtHAVdHUmGia-4" target="9fF-mX0wHtHAVdHUmGia-2" edge="1">
          <mxGeometry relative="1" as="geometry" />
        </mxCell>
        <mxCell id="TPik0PLEabz_SIQZOe-N-2" value="" style="edgeStyle=orthogonalEdgeStyle;rounded=0;orthogonalLoop=1;jettySize=auto;html=1;endArrow=none;endFill=0;" edge="1" parent="1" source="9fF-mX0wHtHAVdHUmGia-4" target="TPik0PLEabz_SIQZOe-N-1">
          <mxGeometry relative="1" as="geometry" />
        </mxCell>
        <mxCell id="9fF-mX0wHtHAVdHUmGia-4" value="角色" style="rounded=1;whiteSpace=wrap;html=1;" parent="1" vertex="1">
          <mxGeometry x="240" y="160" width="80" height="40" as="geometry" />
        </mxCell>
        <mxCell id="9fF-mX0wHtHAVdHUmGia-9" value="" style="edgeStyle=orthogonalEdgeStyle;shape=connector;rounded=0;orthogonalLoop=1;jettySize=auto;html=1;strokeColor=default;align=center;verticalAlign=middle;fontFamily=Helvetica;fontSize=11;fontColor=default;labelBackgroundColor=default;endArrow=none;endFill=0;" parent="1" source="9fF-mX0wHtHAVdHUmGia-6" target="9fF-mX0wHtHAVdHUmGia-8" edge="1">
          <mxGeometry relative="1" as="geometry" />
        </mxCell>
        <mxCell id="9fF-mX0wHtHAVdHUmGia-6" value="角色菜单&lt;br&gt;关联表" style="rounded=1;whiteSpace=wrap;html=1;" parent="1" vertex="1">
          <mxGeometry x="240" y="80" width="80" height="40" as="geometry" />
        </mxCell>
        <mxCell id="9fF-mX0wHtHAVdHUmGia-12" value="" style="edgeStyle=orthogonalEdgeStyle;shape=connector;rounded=0;orthogonalLoop=1;jettySize=auto;html=1;strokeColor=default;align=center;verticalAlign=middle;fontFamily=Helvetica;fontSize=11;fontColor=default;labelBackgroundColor=default;endArrow=none;endFill=0;" parent="1" source="9fF-mX0wHtHAVdHUmGia-8" target="9fF-mX0wHtHAVdHUmGia-11" edge="1">
          <mxGeometry relative="1" as="geometry" />
        </mxCell>
        <mxCell id="9fF-mX0wHtHAVdHUmGia-8" value="菜单" style="rounded=1;whiteSpace=wrap;html=1;" parent="1" vertex="1">
          <mxGeometry x="380" y="80" width="80" height="40" as="geometry" />
        </mxCell>
        <mxCell id="9fF-mX0wHtHAVdHUmGia-11" value="物理菜单" style="rounded=1;whiteSpace=wrap;html=1;" parent="1" vertex="1">
          <mxGeometry x="550" y="80" width="80" height="40" as="geometry" />
        </mxCell>
        <mxCell id="9fF-mX0wHtHAVdHUmGia-13" value="权限系统" style="text;html=1;align=center;verticalAlign=middle;whiteSpace=wrap;rounded=0;fontFamily=Helvetica;fontSize=11;fontColor=default;labelBackgroundColor=default;" parent="1" vertex="1">
          <mxGeometry x="390" y="20" width="60" height="30" as="geometry" />
        </mxCell>
        <mxCell id="9fF-mX0wHtHAVdHUmGia-14" value="业务系统" style="text;html=1;align=center;verticalAlign=middle;whiteSpace=wrap;rounded=0;fontFamily=Helvetica;fontSize=11;fontColor=default;labelBackgroundColor=default;" parent="1" vertex="1">
          <mxGeometry x="550" y="20" width="60" height="30" as="geometry" />
        </mxCell>
        <mxCell id="9fF-mX0wHtHAVdHUmGia-15" value="&lt;span style=&quot;color: rgb(0, 0, 0); font-family: Helvetica; font-size: 12px; font-style: normal; font-variant-ligatures: normal; font-variant-caps: normal; font-weight: 400; letter-spacing: normal; orphans: 2; text-align: center; text-indent: 0px; text-transform: none; widows: 2; word-spacing: 0px; -webkit-text-stroke-width: 0px; white-space: normal; background-color: rgb(251, 251, 251); text-decoration-thickness: initial; text-decoration-style: initial; text-decoration-color: initial; display: inline !important; float: none;&quot;&gt;菜单code&lt;/span&gt;" style="text;whiteSpace=wrap;html=1;fontFamily=Helvetica;fontSize=11;fontColor=default;labelBackgroundColor=default;" parent="1" vertex="1">
          <mxGeometry x="480" y="70" width="60" height="40" as="geometry" />
        </mxCell>
        <mxCell id="9fF-mX0wHtHAVdHUmGia-17" value="&lt;font style=&quot;font-size: 13px;&quot;&gt;org.springframework.security.core.userdetails.User&lt;/font&gt;" style="text;html=1;align=center;verticalAlign=middle;resizable=0;points=[];autosize=1;strokeColor=none;fillColor=none;fontFamily=Helvetica;fontSize=11;fontColor=default;labelBackgroundColor=default;" parent="1" vertex="1">
          <mxGeometry x="70" y="370" width="320" height="30" as="geometry" />
        </mxCell>
        <mxCell id="TPik0PLEabz_SIQZOe-N-4" value="" style="edgeStyle=orthogonalEdgeStyle;shape=connector;rounded=0;orthogonalLoop=1;jettySize=auto;html=1;strokeColor=default;align=center;verticalAlign=middle;fontFamily=Helvetica;fontSize=11;fontColor=default;labelBackgroundColor=default;endArrow=none;endFill=0;" edge="1" parent="1" source="TPik0PLEabz_SIQZOe-N-1" target="TPik0PLEabz_SIQZOe-N-3">
          <mxGeometry relative="1" as="geometry" />
        </mxCell>
        <mxCell id="TPik0PLEabz_SIQZOe-N-1" value="角色动态组&lt;div&gt;关联表&lt;/div&gt;" style="rounded=1;whiteSpace=wrap;html=1;" vertex="1" parent="1">
          <mxGeometry x="240" y="250" width="80" height="40" as="geometry" />
        </mxCell>
        <mxCell id="TPik0PLEabz_SIQZOe-N-3" value="动态组" style="rounded=1;whiteSpace=wrap;html=1;" vertex="1" parent="1">
          <mxGeometry x="80" y="250" width="80" height="40" as="geometry" />
        </mxCell>
        <mxCell id="TPik0PLEabz_SIQZOe-N-8" value="" style="edgeStyle=orthogonalEdgeStyle;shape=connector;rounded=0;orthogonalLoop=1;jettySize=auto;html=1;strokeColor=default;align=center;verticalAlign=middle;fontFamily=Helvetica;fontSize=11;fontColor=default;labelBackgroundColor=default;endArrow=classic;endFill=1;" edge="1" parent="1" source="TPik0PLEabz_SIQZOe-N-6" target="TPik0PLEabz_SIQZOe-N-7">
          <mxGeometry relative="1" as="geometry" />
        </mxCell>
        <mxCell id="TPik0PLEabz_SIQZOe-N-20" style="edgeStyle=orthogonalEdgeStyle;shape=connector;rounded=0;orthogonalLoop=1;jettySize=auto;html=1;entryX=0;entryY=0.5;entryDx=0;entryDy=0;strokeColor=default;align=center;verticalAlign=middle;fontFamily=Helvetica;fontSize=11;fontColor=default;labelBackgroundColor=default;endArrow=classic;endFill=1;" edge="1" parent="1" source="TPik0PLEabz_SIQZOe-N-6" target="TPik0PLEabz_SIQZOe-N-19">
          <mxGeometry relative="1" as="geometry">
            <Array as="points">
              <mxPoint x="40" y="520" />
            </Array>
          </mxGeometry>
        </mxCell>
        <mxCell id="TPik0PLEabz_SIQZOe-N-6" value="载入用户信息" style="rounded=1;whiteSpace=wrap;html=1;" vertex="1" parent="1">
          <mxGeometry y="565" width="80" height="40" as="geometry" />
        </mxCell>
        <mxCell id="TPik0PLEabz_SIQZOe-N-10" value="" style="edgeStyle=orthogonalEdgeStyle;shape=connector;rounded=0;orthogonalLoop=1;jettySize=auto;html=1;strokeColor=default;align=center;verticalAlign=middle;fontFamily=Helvetica;fontSize=11;fontColor=default;labelBackgroundColor=default;endArrow=classic;endFill=1;" edge="1" parent="1" source="TPik0PLEabz_SIQZOe-N-7" target="TPik0PLEabz_SIQZOe-N-9">
          <mxGeometry relative="1" as="geometry" />
        </mxCell>
        <mxCell id="TPik0PLEabz_SIQZOe-N-7" value="用户关联&lt;br&gt;的动态组" style="rounded=1;whiteSpace=wrap;html=1;" vertex="1" parent="1">
          <mxGeometry x="130" y="565" width="80" height="40" as="geometry" />
        </mxCell>
        <mxCell id="TPik0PLEabz_SIQZOe-N-18" value="" style="edgeStyle=orthogonalEdgeStyle;shape=connector;rounded=0;orthogonalLoop=1;jettySize=auto;html=1;strokeColor=default;align=center;verticalAlign=middle;fontFamily=Helvetica;fontSize=11;fontColor=default;labelBackgroundColor=default;endArrow=classic;endFill=1;" edge="1" parent="1" source="TPik0PLEabz_SIQZOe-N-9" target="TPik0PLEabz_SIQZOe-N-17">
          <mxGeometry relative="1" as="geometry" />
        </mxCell>
        <mxCell id="TPik0PLEabz_SIQZOe-N-9" value="动态组关联&lt;br&gt;的角色" style="rounded=1;whiteSpace=wrap;html=1;" vertex="1" parent="1">
          <mxGeometry x="270" y="565" width="80" height="40" as="geometry" />
        </mxCell>
        <mxCell id="TPik0PLEabz_SIQZOe-N-23" value="" style="edgeStyle=orthogonalEdgeStyle;shape=connector;rounded=0;orthogonalLoop=1;jettySize=auto;html=1;strokeColor=default;align=center;verticalAlign=middle;fontFamily=Helvetica;fontSize=11;fontColor=default;labelBackgroundColor=default;endArrow=classic;endFill=1;" edge="1" parent="1" source="TPik0PLEabz_SIQZOe-N-17" target="TPik0PLEabz_SIQZOe-N-22">
          <mxGeometry relative="1" as="geometry" />
        </mxCell>
        <mxCell id="TPik0PLEabz_SIQZOe-N-17" value="角色聚合" style="rounded=1;whiteSpace=wrap;html=1;" vertex="1" parent="1">
          <mxGeometry x="414" y="565" width="80" height="40" as="geometry" />
        </mxCell>
        <mxCell id="TPik0PLEabz_SIQZOe-N-21" style="edgeStyle=orthogonalEdgeStyle;shape=connector;rounded=0;orthogonalLoop=1;jettySize=auto;html=1;strokeColor=default;align=center;verticalAlign=middle;fontFamily=Helvetica;fontSize=11;fontColor=default;labelBackgroundColor=default;endArrow=classic;endFill=1;" edge="1" parent="1" source="TPik0PLEabz_SIQZOe-N-19" target="TPik0PLEabz_SIQZOe-N-17">
          <mxGeometry relative="1" as="geometry" />
        </mxCell>
        <mxCell id="TPik0PLEabz_SIQZOe-N-19" value="动态组关联&lt;br&gt;的角色" style="rounded=1;whiteSpace=wrap;html=1;" vertex="1" parent="1">
          <mxGeometry x="270" y="500" width="80" height="40" as="geometry" />
        </mxCell>
        <mxCell id="TPik0PLEabz_SIQZOe-N-25" value="" style="edgeStyle=orthogonalEdgeStyle;shape=connector;rounded=0;orthogonalLoop=1;jettySize=auto;html=1;strokeColor=default;align=center;verticalAlign=middle;fontFamily=Helvetica;fontSize=11;fontColor=default;labelBackgroundColor=default;endArrow=classic;endFill=1;" edge="1" parent="1" source="TPik0PLEabz_SIQZOe-N-22" target="TPik0PLEabz_SIQZOe-N-24">
          <mxGeometry relative="1" as="geometry" />
        </mxCell>
        <mxCell id="TPik0PLEabz_SIQZOe-N-22" value="角色关联&lt;div&gt;的菜单&lt;/div&gt;" style="rounded=1;whiteSpace=wrap;html=1;" vertex="1" parent="1">
          <mxGeometry x="550" y="565" width="80" height="40" as="geometry" />
        </mxCell>
        <mxCell id="TPik0PLEabz_SIQZOe-N-24" value="校验权限" style="rounded=1;whiteSpace=wrap;html=1;" vertex="1" parent="1">
          <mxGeometry x="680" y="565" width="80" height="40" as="geometry" />
        </mxCell>
      </root>
    </mxGraphModel>
  </diagram>
</mxfile>
